<svg width="1512" height="1113" viewBox="0 0 1512 1113" fill="none" xmlns="http://www.w3.org/2000/svg">
<g clip-path="url(#clip0_17_155)">
<path d="M-396.434 682.158C-60.8976 677.71 148.08 754.625 280.077 831.354C390.115 895.329 402.002 933.239 508.606 972.282C739.944 1057 1118.74 1037.71 1239.67 851.576C1299.24 759.889 1240.82 691.159 1226.64 526.88C1213.88 379.1 1238.91 160.753 1421.29 -131.541" stroke="white" stroke-opacity="0.1" stroke-width="5" stroke-miterlimit="10"/>
<path d="M-384.205 714.758C-61.9227 698.914 142.623 768.454 272.076 838.165C381.012 896.847 399.628 929.153 510.941 965.207C744.454 1040.84 1100.92 1024.77 1225.1 847.079C1289.07 755.557 1241.91 684.37 1234.59 518.151C1228.15 371.812 1256.18 155.99 1434.82 -132.937" stroke="white" stroke-opacity="0.1" stroke-width="5" stroke-miterlimit="10"/>
<path d="M-371.977 747.354C-62.9522 720.121 137.298 782.276 264.095 844.972C372.116 898.381 397.116 925.119 513.294 958.125C748.627 1024.98 1083.69 1011.88 1210.56 842.578C1279.09 751.11 1242.89 677.699 1242.57 509.418C1242.3 364.613 1273.47 151.233 1448.39 -134.324" stroke="white" stroke-opacity="0.1" stroke-width="5" stroke-miterlimit="10"/>
<path d="M-359.748 779.954C-63.9805 741.334 132.142 796.073 256.122 851.803C363.352 899.968 394.459 921.175 515.664 951.031C752.519 1009.43 1067.04 999.079 1196.02 838.068C1269.31 746.596 1243.76 671.142 1250.56 500.675C1256.27 357.508 1290.77 146.471 1461.94 -135.718" stroke="white" stroke-opacity="0.1" stroke-width="5" stroke-miterlimit="10"/>
<path d="M-347.519 812.548C-64.9844 762.521 127.167 809.803 248.135 858.584C354.759 901.577 391.727 917.302 517.986 943.96C756.089 994.197 1050.87 986.408 1181.44 833.575C1259.68 742.011 1244.45 664.694 1258.51 491.948C1270.03 350.486 1308.04 141.718 1475.46 -137.077" stroke="white" stroke-opacity="0.1" stroke-width="5" stroke-miterlimit="10"/>
<path d="M-335.291 845.145C-66.036 783.736 122.394 823.47 240.153 865.389C346.364 903.202 388.82 913.563 520.338 936.873C759.463 979.267 1035.23 973.864 1166.89 829.078C1250.25 737.401 1244.96 658.336 1266.48 483.212C1283.63 343.518 1325.32 136.963 1489 -138.494" stroke="white" stroke-opacity="0.1" stroke-width="5" stroke-miterlimit="10"/>
<path d="M-323.063 877.741C-67.0739 804.919 117.844 837.005 232.171 872.195C338.173 904.824 385.851 909.93 522.685 929.793C762.663 964.625 1020.05 961.484 1152.34 824.575C1241.02 732.792 1245.36 652.019 1274.45 474.479C1297.05 336.588 1342.63 132.2 1502.54 -139.881" stroke="white" stroke-opacity="0.1" stroke-width="5" stroke-miterlimit="10"/>
<path d="M-310.814 910.333C-68.0773 826.135 113.557 850.392 224.208 878.993C330.235 906.401 382.844 906.411 525.054 922.706C765.731 950.26 1005.31 949.267 1137.8 820.066C1232.01 728.203 1245.56 645.759 1282.45 465.736C1310.3 329.699 1359.89 127.468 1516.09 -141.274" stroke="white" stroke-opacity="0.1" stroke-width="5" stroke-miterlimit="10"/>
<path d="M-298.607 942.937C-69.128 847.35 109.47 863.592 216.208 885.809C322.512 907.92 379.708 903.079 527.384 915.627C768.673 936.16 990.918 937.255 1123.23 815.576C1223.16 723.684 1245.53 639.533 1290.4 457.008C1323.39 322.82 1377.17 122.694 1529.66 -142.678" stroke="white" stroke-opacity="0.1" stroke-width="5" stroke-miterlimit="10"/>
<path d="M-286.384 975.52C-70.1571 868.542 105.639 876.535 208.221 892.6C315.002 909.322 376.542 899.811 529.723 908.535C771.521 922.297 976.847 925.429 1108.67 811.061C1214.5 719.243 1245.32 633.29 1298.36 448.259C1336.3 315.928 1394.46 117.924 1543.17 -144.072" stroke="white" stroke-opacity="0.1" stroke-width="5" stroke-miterlimit="10"/>
<path d="M-274.149 1008.13C-71.1529 889.753 102.051 889.23 200.251 899.418C307.767 910.578 373.377 896.734 532.083 901.46C774.357 908.68 963.095 913.833 1094.12 806.576C1206.05 714.951 1244.93 627.062 1306.34 439.535C1349.08 309.058 1411.75 113.182 1556.73 -145.445" stroke="white" stroke-opacity="0.1" stroke-width="5" stroke-miterlimit="10"/>
<path d="M-261.921 1040.73C-72.2114 910.964 98.6536 901.594 192.269 906.222C300.736 911.589 370.209 893.783 534.43 894.38C777.166 895.255 949.581 902.427 1079.57 802.073C1197.78 710.81 1244.32 620.786 1314.32 430.805C1361.71 302.148 1429.03 108.422 1570.27 -146.841" stroke="white" stroke-opacity="0.1" stroke-width="5" stroke-miterlimit="10"/>
<path d="M-249.693 1073.33C-73.2422 932.169 95.4025 913.62 184.288 913.032C293.878 912.308 366.991 890.988 536.78 887.3C779.98 882.019 936.267 891.237 1065.02 797.57C1189.69 706.868 1243.53 614.461 1322.29 422.069C1374.22 295.206 1446.32 103.668 1583.82 -148.234" stroke="white" stroke-opacity="0.1" stroke-width="5" stroke-miterlimit="10"/>
<path d="M-237.465 1105.92C-74.2666 953.375 92.2504 925.295 176.307 919.839C287.133 912.644 363.813 888.327 539.116 880.218C782.798 868.949 923.092 880.237 1050.45 793.076C1181.8 703.155 1242.53 608.07 1330.25 413.337C1386.63 288.217 1463.6 98.8982 1597.36 -149.612" stroke="white" stroke-opacity="0.1" stroke-width="5" stroke-miterlimit="10"/>
<path d="M-225.237 1138.52C-75.2981 974.577 89.1223 936.617 168.302 926.651C280.391 912.537 360.633 885.811 541.457 873.141C785.664 856.029 910.047 869.495 1035.89 788.578C1174.07 699.723 1241.35 601.59 1338.21 404.593C1398.9 281.171 1480.86 94.145 1610.88 -151.024" stroke="white" stroke-opacity="0.1" stroke-width="5" stroke-miterlimit="10"/>
<path d="M-213.009 1171.12C-76.3011 995.775 85.9379 947.61 160.342 933.447C273.598 911.89 357.531 883.416 543.824 866.048C788.601 843.255 897.097 858.932 1021.36 784.073C1166.53 696.599 1240.02 595.016 1346.21 395.868C1411.15 274.071 1498.17 89.3962 1624.45 -152.406" stroke="white" stroke-opacity="0.1" stroke-width="5" stroke-miterlimit="10"/>
<path d="M-200.753 1203.71C-77.3303 1016.98 89.2018 974.484 152.387 940.247C255.739 884.242 354.479 881.15 546.203 858.957C791.608 830.562 884.168 848.588 1006.8 779.57C1159.13 693.852 1238.52 588.299 1354.18 387.132C1423.3 266.915 1515.46 84.6407 1638 -153.781" stroke="white" stroke-opacity="0.1" stroke-width="5" stroke-miterlimit="10"/>
<path d="M-188.551 1236.31C-78.3809 1038.19 85.3956 981.821 144.38 947.063C247.764 886.143 351.417 879.028 548.525 851.887C794.69 818.008 871.212 838.475 992.246 775.068C1151.84 691.492 1236.86 581.481 1362.15 378.384C1435.39 259.669 1532.74 79.8715 1651.53 -155.201" stroke="white" stroke-opacity="0.1" stroke-width="5" stroke-miterlimit="10"/>
<path d="M-176.322 1268.91C-79.4123 1059.4 80.6594 988.896 136.398 953.868C240.448 888.48 348.439 877.019 550.885 844.824C797.84 805.528 858.207 828.546 977.701 770.592C1144.67 689.607 1235.09 574.546 1370.13 369.681C1447.45 252.397 1550.04 75.1379 1665.09 -156.562" stroke="white" stroke-opacity="0.1" stroke-width="5" stroke-miterlimit="10"/>
<path d="M-164.095 1301.51C-80.4421 1080.6 70.6226 989.583 128.422 960.67C242.281 903.751 345.531 875.111 553.233 837.735C801.09 793.108 845.101 818.803 963.15 766.079C1137.56 688.162 1233.17 567.42 1378.11 360.92C1459.47 244.988 1567.33 70.3655 1678.63 -157.978" stroke="white" stroke-opacity="0.1" stroke-width="5" stroke-miterlimit="10"/>
<path d="M-151.867 1334.1C-81.4719 1101.81 65.8319 999.972 120.435 967.481C232.703 900.689 342.675 873.319 555.572 830.652C804.416 780.763 831.849 809.269 948.589 761.579C1130.5 687.27 1231.17 560.206 1386.07 352.201C1471.46 237.543 1584.61 65.6234 1692.18 -159.356" stroke="white" stroke-opacity="0.1" stroke-width="5" stroke-miterlimit="10"/>
<path d="M-139.638 1366.7C-82.4961 1123.02 60.5298 1010.55 112.453 974.288C222.318 897.543 339.899 871.621 557.922 823.56C807.85 768.463 818.428 799.909 934.039 757.069C1123.42 686.876 1229.07 552.815 1394.05 343.458C1483.45 230.023 1601.89 60.8543 1705.72 -160.759" stroke="white" stroke-opacity="0.1" stroke-width="5" stroke-miterlimit="10"/>
</g>
<defs>
<clipPath id="clip0_17_155">
<rect width="2263.98" height="928.626" fill="white" transform="translate(-450.287 531.218) rotate(-19.5162)"/>
</clipPath>
</defs>
</svg>
