<svg width="1512" height="695" viewBox="0 0 1512 695" fill="none" xmlns="http://www.w3.org/2000/svg">
<g clip-path="url(#clip0_17_120)">
<path d="M-169.321 536.721C-52.7171 504.796 25.0911 458.447 74.8691 421.631C125.207 384.401 159.557 347.491 229.467 317.959C306.551 285.257 360.559 283.233 382.169 283.745C412.131 284.468 411.126 288.985 460.935 294.371C556.608 304.721 571.51 289.295 615.486 299.816C688.4 317.253 676.951 366.708 756.83 404.127C814.677 431.239 904.511 444.564 976.982 409.948C1045.23 377.347 1044.29 327.933 1118.59 306.903C1149.11 298.263 1176.1 299.6 1230.06 302.277C1299.2 305.622 1347.29 316.751 1366.38 320.25C1422.91 330.643 1510.39 327.406 1641.7 261.124" stroke="white" stroke-opacity="0.08" stroke-width="5" stroke-miterlimit="10"/>
<path d="M-167.199 552.361C-54.2169 522.482 26.1983 478.642 80.7662 439.924C125.037 408.165 157.381 376.397 205.052 349.071C215.481 343.106 226.53 337.152 238.577 331.537C314.506 296.179 367.466 289.679 389.696 287.62C419.504 284.843 420.093 287.969 468.881 293.129C503.264 296.747 527.493 297.948 546.135 298.22C577.824 298.671 593.183 296.215 619.512 303.604C629.33 306.324 638.782 310.14 647.68 314.975C688.829 337.321 694.248 374.453 760.786 402.366C818.702 426.664 907.316 436.598 978.515 402.368C984.153 399.653 989.651 396.662 994.987 393.41C1048.83 360.558 1054.58 319.522 1119.87 300.953C1126.75 298.986 1133.75 297.467 1140.83 296.406C1164.59 292.767 1190.08 293.895 1230.48 295.887C1297.44 299.28 1344.78 310.168 1365.82 314.042C1381.23 316.829 1396.86 318.35 1412.55 318.59C1466.88 319.561 1541.01 306.765 1639.8 259.573" stroke="white" stroke-opacity="0.08" stroke-width="5" stroke-miterlimit="10"/>
<path d="M-164.82 569.37C-55.4836 541.505 27.6718 500.386 86.8949 459.446C133.93 426.948 167.75 393.574 214.312 365.529C224.934 359.11 235.966 352.559 247.979 346.46C322.747 308.43 374.277 295.834 397.529 292.837C427.495 289.012 429.405 288.307 477.102 293.236C510.502 296.711 534.794 298.737 553.248 299.899C584.331 301.81 598.882 300.634 623.745 308.772C633.226 311.923 642.35 315.999 650.974 320.937C690.876 343.319 699.097 377.631 765.045 402.017C823.028 423.485 910.424 430.03 980.345 396.186C986.252 393.255 991.689 390.413 996.698 387.287C1052.29 353.686 1058.59 314.402 1121.49 296.502C1128.3 294.53 1135.24 292.998 1142.26 291.916C1166.41 288.079 1191.83 289.056 1231.28 291.137C1296.05 294.504 1342.61 305.212 1365.6 309.282C1380.88 312.043 1396.38 313.598 1411.94 313.94C1465.84 315.247 1539.86 303.726 1638.13 259.468" stroke="white" stroke-opacity="0.08" stroke-width="5" stroke-miterlimit="10"/>
<path d="M-162.207 587.518C-56.5042 561.736 29.2947 523.121 93.2741 480.194C142.973 446.83 178.339 411.929 223.754 383.155C234.591 376.276 245.622 369.144 257.561 362.549C331.178 321.881 381.851 306.719 405.544 299.201C434.857 289.917 438.896 289.792 485.52 294.487C517.968 297.778 542.325 300.647 560.682 302.681C591.14 306.038 604.925 306.169 628.314 315.039C637.398 318.642 646.145 322.987 654.463 328.027C693.112 350.426 704.241 381.881 769.451 402.751C827.574 421.373 913.681 424.56 982.323 391.084C988.177 388.163 993.578 385.327 998.561 382.261C1055.85 347.833 1062.78 310.359 1123.19 292.961C1129.96 290.982 1136.85 289.436 1143.82 288.332C1168.33 284.279 1193.77 285.126 1232.19 287.22C1294.75 290.549 1340.56 301.053 1365.5 305.465C1380.68 308.159 1396.05 309.741 1411.5 310.207C1464.98 311.844 1538.88 301.619 1636.62 260.28" stroke="white" stroke-opacity="0.08" stroke-width="5" stroke-miterlimit="10"/>
<path d="M-159.606 605.703C-57.5246 581.969 30.8879 545.896 99.6375 500.962C152.017 466.712 188.907 430.269 233.216 400.794C244.249 393.461 255.261 385.731 267.165 378.652C339.64 335.398 389.033 316.022 413.585 305.616C442.591 293.315 448.343 291.341 493.965 295.788C525.542 298.933 549.846 302.612 568.059 305.474C597.887 310.259 610.897 311.736 632.827 321.318C641.495 325.362 649.87 329.97 657.894 335.109C695.303 357.487 709.341 386.103 773.854 403.559C832.111 419.318 916.914 419.168 984.3 386.075C990.083 383.168 995.446 380.339 1000.42 377.311C1059.42 342.068 1066.97 306.587 1124.92 289.581C1131.64 287.621 1138.47 286.06 1145.38 284.909C1170.23 280.666 1195.57 281.386 1233.11 283.464C1293.5 286.784 1338.54 297.103 1365.43 301.806C1380.5 304.465 1395.75 306.083 1411.07 306.65C1464.15 308.636 1537.93 299.67 1635.16 261.283" stroke="white" stroke-opacity="0.08" stroke-width="5" stroke-miterlimit="10"/>
<path d="M-158.177 617.471C-59.7161 595.783 31.3318 562.271 104.835 515.332C159.87 480.181 198.295 442.14 241.51 412.034C252.718 404.231 263.761 395.969 275.602 388.356C346.9 342.524 395.082 319.011 420.399 305.605C449.142 290.409 456.685 286.424 501.183 290.664C525.76 293.03 550.159 296.803 574.251 301.963C603.499 308.147 615.703 311.013 636.106 321.228C645.02 325.713 652.399 330.889 660.25 335.793C696.406 358.079 713.398 383.975 777.14 397.939C835.581 410.81 919.051 407.346 985.161 374.637C990.889 371.74 996.217 368.921 1001.16 365.934C1061.91 329.925 1070.02 296.138 1125.54 279.772C1132.21 277.819 1138.98 276.251 1145.83 275.077C1171.07 270.671 1196.33 271.205 1232.85 273.238C1291.03 276.501 1335.34 286.669 1364.16 291.661C1379.12 294.282 1394.26 295.925 1409.48 296.585C1462.13 298.924 1535.79 291.254 1632.49 255.783" stroke="white" stroke-opacity="0.08" stroke-width="5" stroke-miterlimit="10"/>
<path d="M-157.447 625.919C-62.6322 606.244 31.047 575.273 109.327 526.36C167.019 490.309 206.936 450.641 249.12 420.021C260.515 411.728 271.549 402.922 283.352 394.807C353.571 346.432 400.565 318.797 426.622 302.36C455.061 284.366 464.364 278.286 507.806 282.289C532.148 284.532 556.226 288.795 579.778 295.03C608.371 302.593 619.848 306.868 638.786 317.85C647.184 322.688 654.124 328.218 661.933 333.203C696.882 355.535 716.779 378.374 779.752 389.046C838.411 398.984 920.532 392.248 985.364 359.906C991.018 357.023 996.293 354.211 1001.24 351.261C1063.75 314.54 1072.49 282.489 1125.52 266.811C1132.13 264.85 1138.85 263.268 1145.65 262.074C1171.22 257.476 1196.45 257.852 1232 259.96C1287.99 263.217 1331.53 273.185 1362.31 278.497C1377.17 281.068 1392.19 282.74 1407.27 283.505C1459.53 286.192 1533.07 279.819 1629.26 247.247" stroke="white" stroke-opacity="0.08" stroke-width="5" stroke-miterlimit="10"/>
<path d="M-156.64 634.477C-65.4587 616.886 30.8027 588.392 113.897 537.502C174.225 500.537 215.608 459.21 256.737 427.97C268.314 419.152 279.378 409.794 291.131 401.216C360.24 350.34 406.097 318.646 432.815 299.067C461.166 278.307 472.036 270.113 514.403 273.881C538.565 276.088 562.367 280.925 585.365 288.304C613.255 297.218 624.038 302.97 641.505 314.592C649.338 319.809 655.865 325.635 663.626 330.757C697.361 353.008 720.247 372.92 782.405 380.272C841.291 387.241 922.017 377.256 985.52 345.33C991.122 342.456 996.359 339.652 1001.27 336.726C1065.52 299.168 1074.76 268.931 1125.41 253.737C1131.97 251.786 1138.63 250.191 1145.37 248.961C1171.3 244.077 1196.48 244.39 1231.04 246.538C1284.85 249.734 1327.61 259.556 1360.36 265.136C1375.11 267.681 1390.01 269.393 1404.99 270.261C1456.81 273.232 1530.24 268.149 1625.9 238.551" stroke="white" stroke-opacity="0.08" stroke-width="5" stroke-miterlimit="10"/>
<path d="M-155.845 643.075C-68.2848 627.529 30.5836 601.544 118.455 548.681C181.439 510.799 224.283 467.796 264.399 436.037C276.131 426.754 287.25 416.895 298.907 407.717C366.928 354.336 411.682 318.576 439.044 295.857C467.271 272.356 479.722 262.01 521.035 265.541C545.007 267.705 568.525 273.066 590.932 281.473C618.27 291.727 628.193 298.987 644.189 311.25C651.479 316.86 657.625 322.94 665.318 328.201C697.842 350.39 723.669 367.33 785.024 371.414C844.163 375.352 923.485 362.196 985.766 330.627C991.313 327.764 996.514 324.966 1001.4 322.099C1067.42 283.825 1077.2 255.308 1125.43 240.678C1131.94 238.734 1138.54 237.126 1145.22 235.859C1171.5 230.746 1196.72 230.943 1230.25 233.103C1281.85 236.279 1323.87 245.932 1358.56 251.8C1373.2 254.329 1387.99 256.092 1402.84 257.082C1454.27 260.452 1527.57 256.594 1622.72 229.929" stroke="white" stroke-opacity="0.08" stroke-width="5" stroke-miterlimit="10"/>
<path d="M-155.056 651.636C-71.1272 638.085 30.3812 614.586 123.034 559.766C188.738 520.935 232.937 476.259 272.078 444.011C283.975 434.205 295.131 423.848 306.732 414.172C373.655 358.343 417.327 318.531 445.301 292.587C473.494 266.419 487.456 253.861 527.693 257.158C551.504 259.329 574.751 265.257 596.528 274.709C623.231 286.264 632.382 295.088 646.904 307.974C653.652 313.977 659.356 320.304 667.092 325.703C698.44 347.804 727.224 361.659 787.763 362.587C847.146 363.46 925.056 347.169 986.079 315.983C991.552 313.134 996.718 310.343 1001.61 307.602C1069.38 268.598 1079.71 241.796 1125.48 227.774C1131.95 225.8 1138.52 224.174 1145.16 222.904C1171.82 217.702 1196.9 217.653 1229.51 219.748C1278.92 222.9 1320.17 232.389 1356.83 238.542C1370.08 240.775 1384.65 242.704 1400.76 243.852C1451.77 247.558 1524.96 244.994 1619.57 221.248" stroke="white" stroke-opacity="0.08" stroke-width="5" stroke-miterlimit="10"/>
<path d="M-154.314 659.952C-74.0935 648.482 30.04 627.488 127.511 570.726C195.777 530.974 241.465 484.564 279.658 451.839C291.699 441.516 302.913 430.676 314.452 420.465C380.349 362.174 422.982 318.321 451.439 289.194C479.579 260.255 495.053 245.593 534.235 248.652C557.911 250.832 580.911 257.306 602.049 267.741C628.158 280.609 636.394 291.041 649.545 304.495C655.748 310.891 661.051 317.476 668.668 323.024C698.831 345.003 730.574 355.882 790.262 353.588C849.95 351.295 926.401 331.95 986.15 301.149C991.57 298.31 996.7 295.526 1001.56 292.792C1071.1 253.055 1081.97 227.967 1125.37 214.521C1131.76 212.548 1138.26 210.918 1144.84 209.636C1171.9 204.195 1196.88 204.036 1228.44 206.22C1275.67 209.328 1316.15 218.672 1354.77 225.092C1367.95 227.301 1382.41 229.233 1398.36 230.503C1448.94 234.542 1522.02 233.255 1616.12 212.461" stroke="white" stroke-opacity="0.08" stroke-width="5" stroke-miterlimit="10"/>
<path d="M-153.573 668.158C-76.9134 658.76 29.7233 640.223 132.018 581.534C203 540.889 249.979 492.689 287.233 459.56C299.436 448.697 310.712 437.39 322.223 426.638C387.058 365.875 428.675 318.031 457.582 285.619C485.774 254.087 502.741 237.108 540.727 239.974C565.95 241.879 590.26 251.067 607.502 260.604C633.026 274.745 640.517 286.791 652.133 300.843C657.758 307.64 662.677 314.478 670.23 320.184C699.22 342.001 733.852 349.827 792.744 344.392C852.617 338.917 927.734 316.551 986.206 286.136C991.553 283.311 996.647 280.533 1001.49 277.803C1072.78 237.318 1084.18 213.949 1125.11 201.114C1131.45 199.139 1137.9 197.494 1144.42 196.186C1171.79 190.503 1196.75 190.24 1227.44 192.425C1272.47 195.51 1312.13 204.698 1352.71 211.404C1365.83 213.57 1380.19 215.539 1395.95 216.9C1446.13 221.288 1519.09 221.277 1612.64 203.368" stroke="white" stroke-opacity="0.08" stroke-width="5" stroke-miterlimit="10"/>
<path d="M-152.871 676.266C-79.8288 668.929 29.2748 652.654 136.483 592.222C209.933 550.457 258.451 500.694 294.796 467.101C307.117 455.688 318.514 443.922 329.891 432.651C393.752 369.506 434.345 317.527 463.728 281.97C491.98 247.772 510.26 228.618 547.332 231.202C571.645 232.951 595.98 242.861 613.051 253.376C637.991 268.792 644.534 282.471 654.799 297.104C659.897 304.291 664.39 311.355 671.898 317.215C699.733 338.959 737.285 343.598 795.388 335.184C855.532 326.458 929.23 301.14 986.425 271.093C991.726 268.288 996.777 265.518 1001.58 262.784C1074.67 221.596 1086.59 199.911 1125.09 187.679C1131.37 185.695 1137.76 184.036 1144.22 182.712C1171.94 176.818 1196.88 176.431 1226.6 178.618C1269.41 181.666 1308.36 190.769 1350.91 197.686C1363.98 199.844 1378.2 201.803 1393.81 203.264C1443.57 208.004 1516.42 209.27 1609.46 194.329" stroke="white" stroke-opacity="0.08" stroke-width="5" stroke-miterlimit="10"/>
<path d="M-152.192 684.246C-82.7926 678.942 28.9365 665.175 140.927 602.786C217.029 560.104 266.91 508.523 302.343 474.572C314.794 462.643 326.248 450.394 337.58 438.585C400.444 373.028 440.118 316.967 469.829 278.184C498.176 241.295 517.827 219.882 553.755 222.263C577.173 223.836 601.554 234.483 618.422 246.018C642.814 262.7 648.42 278.047 657.276 293.255C661.742 300.87 665.941 308.153 673.363 314.157C700.173 335.73 740.961 338.96 797.924 325.777C857.812 311.917 930.616 285.531 986.552 255.866C991.794 253.073 996.802 250.311 1001.58 247.58C1076.5 205.793 1088.89 185.676 1124.95 174.047C1131.19 172.066 1137.53 170.399 1143.93 169.054C1172.01 162.966 1196.98 162.41 1225.62 164.581C1266.18 167.707 1304.47 176.736 1348.94 183.836C1361.94 185.97 1376.06 187.949 1391.48 189.518C1440.84 194.607 1513.57 197.149 1606.09 185.145" stroke="white" stroke-opacity="0.08" stroke-width="5" stroke-miterlimit="10"/>
<path d="M-151.601 692.155C-85.8299 688.861 28.5126 677.638 145.281 613.278C224.037 569.677 275.173 516.314 309.77 481.902C322.397 469.413 333.92 456.732 345.14 444.327C407.032 376.298 445.681 316.283 475.844 274.233C504.362 234.675 525.441 211.102 560.329 213.224C582.834 214.623 607.257 225.99 623.943 238.541C647.78 256.455 652.391 273.481 659.942 289.225C663.816 297.261 667.679 304.753 675.039 310.931C700.609 332.375 743.809 330.713 800.421 316.269C860.847 300.907 931.945 269.823 986.607 240.544C991.701 237.766 996.793 234.989 1001.51 232.283C1078.18 189.747 1091.13 171.324 1124.76 160.317C1130.94 158.324 1137.22 156.645 1143.57 155.284C1172 148.984 1196.85 148.323 1224.6 150.516C1263.04 153.515 1300.48 162.304 1346.91 169.78C1359.87 171.885 1373.88 173.794 1389.19 175.548C1438.11 180.883 1510.76 184.786 1602.67 175.733" stroke="white" stroke-opacity="0.08" stroke-width="5" stroke-miterlimit="10"/>
<path d="M-150.863 699.947C-88.7254 698.737 28.1994 689.991 149.784 623.667C231.266 579.136 283.588 523.911 317.3 489.176C329.973 476.133 341.693 463.015 352.82 450.118C413.897 379.842 451.418 315.53 481.846 270.302C510.422 227.987 532.787 202.281 566.751 204.177C588.343 205.403 612.843 217.482 629.326 231.035C652.647 250.284 656.208 268.889 662.463 285.205C665.689 293.69 669.251 301.366 676.529 307.705C700.984 328.995 747.007 324.037 802.857 306.736C863.427 288.056 933.251 254.084 986.614 225.177C991.708 222.399 996.676 219.645 1001.42 217.08C1079.86 173.793 1093.31 157.022 1124.52 146.615C1130.7 144.635 1136.97 142.968 1143.32 141.621C1169.66 135.655 1196.78 133.925 1223.61 136.501C1259.86 139.477 1296.53 148.1 1344.93 155.861C1357.82 157.924 1371.72 159.908 1386.79 161.724C1457.21 169.872 1528.34 171.462 1599.22 166.472" stroke="white" stroke-opacity="0.08" stroke-width="5" stroke-miterlimit="10"/>
<path d="M-150.227 707.7C-91.7105 708.536 27.8216 702.301 154.183 634.005C238.247 588.567 291.9 531.565 324.855 496.39C471.109 340.154 498.67 191.23 573.283 195.018C593.964 196.07 618.542 208.862 634.803 223.439C669.531 254.541 657.149 285.424 678.131 304.385C729.577 350.887 903.609 255.357 1001.42 201.676C1096.78 149.33 1098.53 137.926 1142.9 127.752C1220.33 109.95 1266.62 132.747 1384.44 147.729C1454.47 156.534 1525.2 159.637 1595.88 157.008" stroke="white" stroke-opacity="0.08" stroke-width="5" stroke-miterlimit="10"/>
<path d="M-149.281 712.721C-89.0624 714.346 26.5954 707.422 147.391 642.086C230.757 596.907 281.687 539.963 317.173 502.821C458.961 354.588 486.14 217.848 560.982 215.501C590.222 214.577 620.732 218.015 642.332 228.022C684.778 247.705 675.372 274.226 701.097 291.512C757.413 329.387 920.483 244.25 1013.83 194.319C1104.74 145.575 1107.02 136.199 1154.6 129.057C1233.66 117.187 1277.44 136.837 1388.55 151.59C1457.87 160.784 1528 163.596 1598 159.991" stroke="white" stroke-opacity="0.08" stroke-width="5" stroke-miterlimit="10"/>
<path d="M-148.296 717.956C-47.738 721.359 52.1588 697.986 140.638 650.359C223.304 605.458 271.397 548.557 309.527 509.444C446.577 368.959 473.92 242.335 548.737 236.174C586.702 233.061 621.892 227.452 649.901 232.816C697.941 241.953 692.897 263.088 724.1 278.852C783.703 308.925 937.394 233.337 1026.3 187.153C1112.6 142.041 1115.39 134.514 1166.36 130.553C1246.77 124.283 1288.34 141.295 1392.71 155.663C1461.3 165.233 1530.8 167.759 1600.08 163.199" stroke="white" stroke-opacity="0.08" stroke-width="5" stroke-miterlimit="10"/>
<path d="M-146.543 727.263C-48.7461 731.454 48.6113 709.101 134.666 662.702C216.617 618.065 261.891 561.203 302.648 520.139C434.591 387.237 465.283 282.968 537.239 260.925C582.255 247.137 623.318 241.586 658.25 241.663C711.029 241.761 710.668 256.141 747.886 270.244C809.499 293.592 955.141 226.667 1039.52 184.063C1121.38 142.733 1124.43 136.758 1178.86 136.108C1260.53 135.129 1299.98 149.796 1397.65 163.789C1465.51 173.761 1534.42 176.004 1602.98 170.472" stroke="white" stroke-opacity="0.08" stroke-width="5" stroke-miterlimit="10"/>
<path d="M-143.874 741.436C-48.8477 746.403 45.9659 725.054 129.586 679.861C210.833 635.465 253.268 578.649 296.675 535.65C423.368 410.155 455.262 315.061 526.667 290.484C579.717 272.238 625.592 250.978 667.488 255.326C725.14 261.308 727.394 262.047 772.559 266.453C831.222 294.702 973.767 224.76 1053.66 185.783C1131 148.122 1134.32 143.678 1192.29 146.49C1275.12 150.514 1312.51 163.184 1403.47 176.731C1470.62 187.096 1538.94 189.05 1606.77 182.542" stroke="white" stroke-opacity="0.08" stroke-width="5" stroke-miterlimit="10"/>
<path d="M-141.142 755.942C-48.8879 761.702 43.3967 741.407 124.63 697.49C205.18 653.369 244.748 596.546 290.83 551.625C412.091 433.391 445.005 346.688 516.094 320.535C577.381 298.009 626.868 271.268 676.855 269.474C741.312 267.155 746.162 262.386 797.363 263.145C857.769 286.739 992.437 223.189 1067.8 187.993C1140.63 154.001 1144.2 150.909 1205.73 157.363C1289.76 166.123 1325.06 177.096 1409.32 190.16C1475.74 200.921 1543.48 202.584 1610.58 195.101" stroke="white" stroke-opacity="0.08" stroke-width="5" stroke-miterlimit="10"/>
<path d="M-138.357 770.729C-48.9036 777.241 40.8206 757.972 119.637 715.322C199.487 671.462 236.156 614.64 284.945 567.809C400.7 456.703 434.551 377.971 505.719 350.747C575.106 324.205 631.192 302.586 686.184 283.81C754.086 260.621 764.888 262.896 822.127 260.027C884.386 279.053 1011.16 221.882 1082.14 190.366C1150.46 160.042 1154.27 158.198 1219.36 168.398C1304.4 181.732 1337.77 191.249 1415.27 203.786C1480.98 214.933 1548.15 216.305 1614.5 207.855" stroke="white" stroke-opacity="0.08" stroke-width="5" stroke-miterlimit="10"/>
<path d="M-135.536 785.709C-64.6561 791.946 27.4404 781.203 114.74 733.357C193.976 689.922 227.631 632.903 279.138 584.195C389.23 480.103 424.024 409.067 495.293 381.188C573.002 350.806 634.281 323.863 695.605 298.348C769.045 267.769 783.553 253.344 846.984 257.11C912.706 261.009 1029.93 220.838 1096.42 192.968C1160.23 166.295 1164.3 165.638 1232.93 179.643C1319.21 197.346 1350.47 205.662 1421.35 217.589C1465.42 225.002 1531.32 233.14 1618.55 220.787" stroke="white" stroke-opacity="0.08" stroke-width="5" stroke-miterlimit="10"/>
<path d="M-132.665 800.954C-60.0173 807.929 28.1397 796.548 109.87 751.641C188.41 708.481 219.106 651.364 273.377 600.828C377.695 503.66 413.221 440.179 484.933 411.871C571.021 377.874 637.601 345.459 705.055 313.135C784.239 275.182 801.864 254.333 871.869 254.442C938.608 254.603 1048.7 219.904 1110.78 195.811C1170.1 172.782 1174.49 173.047 1246.58 191.149C1334.06 213.097 1363.18 220.397 1427.39 231.655C1470.88 239.285 1535.86 247.596 1622.55 233.998" stroke="white" stroke-opacity="0.08" stroke-width="5" stroke-miterlimit="10"/>
<path d="M-129.761 816.372C-55.2742 824.167 28.8715 812.066 105.037 770.117C182.881 727.234 210.579 670.011 267.652 617.655C366.122 527.317 402.42 471.31 474.592 442.751C569.188 405.315 641.055 367.285 714.542 328.114C799.618 282.779 820.304 255.915 896.791 251.967C964.657 248.46 1067.52 219.25 1125.15 198.851C1179.87 179.452 1184.72 180.631 1260.24 202.851C1349.03 228.954 1375.93 235.381 1433.47 245.913C1476.4 253.776 1540.43 262.338 1626.59 247.385" stroke="white" stroke-opacity="0.08" stroke-width="5" stroke-miterlimit="10"/>
<path d="M-126.814 832.022C-50.6382 840.532 29.6615 827.793 100.244 788.805C177.386 746.181 202.042 688.803 261.967 634.691C354.501 551.109 388.726 494.236 464.308 473.837C571.46 444.912 644.607 389.329 724.069 343.305C815.113 290.589 839.372 239.758 921.754 249.703C990.582 258.071 1086.3 218.715 1139.58 202.098C1189.75 186.375 1195.03 188.345 1273.96 214.743C1364.1 244.92 1388.69 250.653 1439.58 260.382C1481.94 268.499 1545.06 277.252 1630.67 261" stroke="white" stroke-opacity="0.08" stroke-width="5" stroke-miterlimit="10"/>
<path d="M-123.771 848.178C-45.8205 857.465 30.5225 843.996 95.5839 808.104C172.008 765.742 193.57 708.146 256.398 652.344C343.017 575.421 378.262 527.25 454.121 505.543C569.589 472.469 648.352 411.992 733.728 359.107C830.813 298.998 857.052 244.758 946.85 248.05C1018.08 250.675 1105.33 218.894 1154.1 205.963C1199.74 193.86 1205.59 196.577 1287.77 227.271C1379.34 261.452 1401.58 266.593 1445.83 275.463C1487.6 283.853 1549.8 292.761 1634.88 275.211" stroke="white" stroke-opacity="0.08" stroke-width="5" stroke-miterlimit="10"/>
<path d="M-120.537 865.352C-40.8293 875.418 31.5704 861.292 91.0614 828.232C166.787 786.129 185.188 728.256 250.984 670.819C331.477 600.544 367.933 561.089 444.107 538.07C567.897 500.663 652.289 435.491 743.529 375.755C846.735 308.183 875.522 251.463 972.085 247.243C1045.51 244.035 1124.42 219.828 1168.8 210.651C1209.86 202.156 1216.33 205.592 1301.76 240.62C1394.79 278.764 1414.67 283.422 1452.22 291.39C1493.42 300.106 1554.78 309.098 1639.23 290.266" stroke="white" stroke-opacity="0.08" stroke-width="5" stroke-miterlimit="10"/>
<path d="M-117.246 882.827C-35.7633 893.669 32.6861 878.849 86.6149 848.762C161.635 806.902 176.803 748.656 245.647 689.701C320.052 625.97 357.62 595.311 434.151 571.005C566.155 529.088 656.337 459.369 753.402 392.79C862.84 317.753 894.618 259.214 997.394 246.823C1072.82 237.729 1143.59 221.11 1183.56 215.745C1220.01 210.828 1227.18 214.932 1315.81 254.377C1410.4 296.446 1427.69 300.828 1458.68 307.721C1499.28 316.823 1559.65 325.895 1643.66 305.727" stroke="white" stroke-opacity="0.08" stroke-width="5" stroke-miterlimit="10"/>
<path d="M-113.664 901.846C-30.4098 913.446 34.0193 897.858 82.4566 870.823C156.689 829.056 168.592 770.459 240.597 710.11C308.868 652.881 347.575 631.045 424.502 605.464C564.611 558.874 660.711 484.785 763.49 411.367C879.019 328.89 916.282 276.319 1022.92 247.945C1098.91 227.741 1162.96 223.936 1198.55 222.378C1230.44 220.992 1238.33 225.799 1330.09 269.654C1426.27 315.663 1440.96 319.697 1465.35 325.558C1505.32 335.18 1564.83 344.176 1648.3 322.709" stroke="white" stroke-opacity="0.08" stroke-width="5" stroke-miterlimit="10"/>
<path d="M-110.119 920.673C-25.1079 933.049 35.3925 916.782 78.2831 892.703C151.798 851.199 160.2 791.917 235.514 730.344C297.624 679.567 337.457 666.591 414.8 639.75C562.97 588.333 665.068 510.004 773.712 429.753C895.486 339.773 936.344 282.743 1048.58 248.878C1126.53 225.394 1182.47 226.444 1213.64 228.812C1240.98 230.936 1249.63 236.4 1344.47 284.75C1442.31 334.626 1454.31 338.495 1472.16 343.224C1511.41 353.618 1570.13 362.254 1653.07 339.486" stroke="white" stroke-opacity="0.08" stroke-width="5" stroke-miterlimit="10"/>
<path d="M-106.57 939.518C-19.8418 952.661 36.8784 935.706 74.091 914.585C146.834 873.355 151.63 813.116 230.431 750.575C286.367 706.182 327.32 702.143 405.118 674.035C561.223 617.631 669.429 535.152 783.841 448.14C911.862 350.673 956.45 289.085 1074.14 249.809C1154.38 223.041 1201.95 228.867 1228.67 235.255C1251.47 240.708 1260.84 247 1358.79 299.855C1458.32 353.614 1467.55 357.387 1478.88 360.89C1517.19 372.75 1575.34 380.367 1657.75 356.299" stroke="white" stroke-opacity="0.08" stroke-width="5" stroke-miterlimit="10"/>
</g>
<defs>
<clipPath id="clip0_17_120">
<rect width="1844.19" height="629.166" fill="white" transform="translate(-219.333 342.061) rotate(-10.6654)"/>
</clipPath>
</defs>
</svg>
